<?xml version="1.0" encoding="UTF-8" standalone="no"?>
<svg
   xmlns:dc="http://purl.org/dc/elements/1.1/"
   xmlns:cc="http://creativecommons.org/ns#"
   xmlns:rdf="http://www.w3.org/1999/02/22-rdf-syntax-ns#"
   xmlns:svg="http://www.w3.org/2000/svg"
   xmlns="http://www.w3.org/2000/svg"
   xmlns:sodipodi="http://sodipodi.sourceforge.net/DTD/sodipodi-0.dtd"
   xmlns:inkscape="http://www.inkscape.org/namespaces/inkscape"
   width="41.034092mm"
   height="47.748146mm"
   viewBox="0 0 155.0677 180.44009"
   version="1.1"
   id="svg3"
   sodipodi:docname="logo_blue.svg"
   inkscape:export-filename="/home/ordnas/Pictures/logo.png"
   inkscape:export-xdpi="110.86443"
   inkscape:export-ydpi="110.86443"
   inkscape:version="1.0.1 (3bc2e813f5, 2020-09-07)">
  <metadata
     id="metadata9">
    <rdf:RDF>
      <cc:Work
         rdf:about="">
        <dc:format>image/svg+xml</dc:format>
        <dc:type
           rdf:resource="http://purl.org/dc/dcmitype/StillImage" />
        <dc:title></dc:title>
      </cc:Work>
    </rdf:RDF>
  </metadata>
  <defs
     id="defs7" />
  <sodipodi:namedview
     pagecolor="#ffffff"
     bordercolor="#666666"
     borderopacity="1"
     objecttolerance="10"
     gridtolerance="10"
     guidetolerance="10"
     inkscape:pageopacity="0"
     inkscape:pageshadow="2"
     inkscape:window-width="1600"
     inkscape:window-height="845"
     id="namedview5"
     showgrid="false"
     inkscape:zoom="2.9444174"
     inkscape:cx="61.01403"
     inkscape:cy="74.631781"
     inkscape:window-x="0"
     inkscape:window-y="30"
     inkscape:window-maximized="1"
     inkscape:current-layer="svg3">
    <inkscape:grid
       type="xygrid"
       id="grid834"
       originx="-19.408125"
       originy="-14.076953" />
  </sodipodi:namedview>
  <path
     id="Selection #1"
     fill="none"
     stroke="#000000"
     stroke-width="1"
     d="M 55.581342,13.919115 78.032488,0.57959876 129.70648,30.475987 129.57095,92.908017 107.57404,105.9062 V 42.915042 Z M 0.58906628,67.911531 0.50114928,46.032454 51.14991,16.179494 102.57475,45.914621 102.33105,68.420186 51.047456,39.288053 Z M 134.57025,32.916446 l 19.94419,16.062928 0.053,56.926826 -52.99255,29.99578 L 81.577695,124.90353 134.38761,95.823587 Z M 19.769066,145.22208 0.58906628,132.90241 V 73.910689 L 51.402387,44.752863 71.537567,56.011461 19.197425,85.534062 Z M 96.923465,169.25899 77.255906,179.86413 24.585696,147.9003 V 88.908577 L 44.582887,77.910127 45.36611,138.80354 Z M 50.759333,112.66396 101.3887,142.32161 154.56744,110.9055 v 23.99662 l -53.02162,29.75109 -51.012096,-29.18429 z"
     sodipodi:nodetypes="cccccccccccccccccccccccccccccccccccccccccc"
     style="fill:#0080ff;stroke:#0066ff;fill-opacity:1" />
</svg>
